<svg width="18" height="18" viewBox="0 0 18 18" fill="#BA55D3" xmlns="http://www.w3.org/2000/svg">
    <path
        d="M10.1048 1.05097C9.77336 1.01733 9.43573 1 9.09312 1C4.62341 1 1 3.94965 1 7.58823C1 11.2268 4.62341 14.1765 9.09312 14.1765C9.79176 14.1765 10.4697 14.1044 11.1164 13.9689L14.1513 17V12.7647C15.5138 11.8434 16.6087 10.459 17 9M17 4.5C17 5.88071 15.8807 7 14.5 7C13.1193 7 12 5.88071 12 4.5C12 3.11929 13.1193 2 14.5 2C15.8807 2 17 3.11929 17 4.5Z"
        stroke="black" stroke-width="2" stroke-linecap="round" stroke-linejoin="round" />
</svg>